<?xml version="1.0" encoding="utf-8"?>
<!-- Generator: Adobe Illustrator 19.1.0, SVG Export Plug-In . SVG Version: 6.00 Build 0)  -->
<svg version="1.1" id="Layer_1" xmlns="http://www.w3.org/2000/svg" xmlns:xlink="http://www.w3.org/1999/xlink" x="0px" y="0px"
	 viewBox="0 0 113.1 23.7" style="enable-background:new 0 0 113.1 23.7;" xml:space="preserve">
<style type="text/css">
	.st0{fill:#0265AC;}
</style>
<g>
	<path class="st0" d="M17.7,10.2c-1.6,0-3.2,1-3.2,3.5V23c0,0.3-0.2,0.5-0.5,0.5h-2.3c-0.3,0-0.5-0.2-0.5-0.5V7.6
		c0-0.3,0.2-0.5,0.5-0.5H14c0.3,0,0.5,0.2,0.5,0.5v1.3h0.1c1.1-1.3,2.5-1.9,4.3-1.9c1,0,1.9,0.2,2.7,0.8c0.2,0.1,0.3,0.5,0.1,0.7
		l-1.5,2.2c-0.1,0.2-0.4,0.3-0.6,0.1C18.9,10.3,18.4,10.2,17.7,10.2z"/>
	<path class="st0" d="M31.8,22c0-0.1-0.1-0.1-0.1,0c-0.5,0.8-1.8,1.6-4.1,1.6c-1.5,0-2.7-0.4-3.7-1c-1.4-0.9-2.1-2.3-2.1-4
		c0-2.6,1.8-4.8,5.3-4.8h3.3h1.4v-1.8c0-1.6-1.1-2.1-3.4-2.1c-1.4,0-2.3,0.2-2.9,0.8c-0.2,0.2-0.5,0.2-0.7,0l-1.4-1.4
		c-0.2-0.2-0.2-0.6,0-0.8c1.2-1.1,2.8-1.7,4.9-1.7c2.1,0,3.8,0.3,4.9,1.2C34.3,9,35,10.3,35,12.2v10.7c0,0.3-0.2,0.5-0.5,0.5h-2.2
		c-0.3,0-0.5-0.2-0.5-0.5C31.8,22.9,31.8,22.2,31.8,22z M27.8,16.5c-2,0-2.9,0.8-2.9,2c0,1.2,0.9,2.1,3.2,2.1c1.5,0,2.6-0.3,3.1-0.8
		c0.4-0.4,0.6-1.1,0.6-2.1v-1.2H27.8z"/>
	<path class="st0" d="M47.4,13.7c0-2.3-1.4-3.6-3.3-3.6c-1.9,0-3.3,1.3-3.3,3.6v9.1c0,0.3-0.3,0.6-0.6,0.6h-2.1
		c-0.3,0-0.6-0.3-0.6-0.6V7.7c0-0.3,0.3-0.6,0.6-0.6h2.1c0.3,0,0.6,0.3,0.6,0.6c0,0,0,0.9,0,1.2c0,0.1,0.1,0.1,0.1,0
		c1-1.3,2.5-1.9,4.3-1.9c2.5,0,5.5,1.9,5.5,5.6v10.3c0,0.3-0.3,0.6-0.6,0.6H48c-0.3,0-0.6-0.3-0.6-0.6V13.7z"/>
	<path class="st0" d="M52.7,20.5l1.3-1.6c0.2-0.2,0.6-0.3,0.8,0c1.3,1.1,2.8,1.7,4.8,1.7c1.9,0,3.3-0.7,3.3-2.1c0-1.2-1-1.5-2.1-1.7
		c-1.2-0.2-2.4,0-3.6-0.3c-2.4-0.5-4-2-4-4.5c0-3.3,2.7-5,6.1-5c2.5,0,4.3,0.6,5.8,1.7c0.2,0.2,0.3,0.5,0.1,0.7L64,11
		c-0.2,0.2-0.5,0.3-0.8,0.1c-1.2-0.8-2.4-1.2-4-1.2c-2.1,0-2.9,0.9-2.9,2c0,0.8,0.5,1.5,2.2,1.6c0.8,0,1.5,0,2.1,0.1
		c0.8,0.1,1.4,0.2,2,0.3c1.9,0.5,3.3,1.7,3.3,4.6c0,3.1-3,5-6.8,5c-2.4,0-4.6-0.7-6.5-2.3C52.5,21.1,52.5,20.7,52.7,20.5z"/>
	<path class="st0" d="M70.8,0L70.8,0c1.2,0,2.1,0.9,2.1,2.1v0c0,1.2-0.9,2.1-2.1,2.1h0c-1.2,0-2.1-0.9-2.1-2.1v0
		C68.7,0.9,69.6,0,70.8,0z M69.8,7.1h2c0.4,0,0.6,0.3,0.6,0.6v15.1c0,0.4-0.3,0.6-0.6,0.6h-2c-0.4,0-0.6-0.3-0.6-0.6V7.8
		C69.2,7.4,69.4,7.1,69.8,7.1z"/>
	<path class="st0" d="M79.7,23.4h-2.3c-0.3,0-0.5-0.2-0.5-0.5V10.4c0-0.3-0.2-0.5-0.5-0.5h-1.7c-0.3,0-0.5-0.2-0.5-0.5V7.6
		c0-0.3,0.2-0.5,0.5-0.5h1.7c0.3,0,0.5-0.2,0.5-0.5V4.9c0-3,1.9-4.4,4.5-4.4H83c0.3,0,0.5,0.2,0.5,0.5V3c0,0.3-0.2,0.5-0.5,0.5h-1.4
		c-1.1,0-1.5,0.7-1.5,1.7v1.4c0,0.3,0.2,0.5,0.5,0.5H83c0.3,0,0.5,0.2,0.5,0.5v1.9c0,0.3-0.2,0.5-0.5,0.5h-2.3
		c-0.3,0-0.5,0.2-0.5,0.5V23C80.2,23.2,80,23.4,79.7,23.4z"/>
	<path class="st0" d="M88.5,18.9c0.7,1.2,2,1.7,3.4,1.7c1.1,0,2.3-0.4,3.3-1.3c0.2-0.2,0.5-0.2,0.7,0l1.4,1.6c0.2,0.2,0.2,0.5,0,0.7
		c-1.5,1.4-3.3,2-5.3,2c-3.4,0-7.3-1.6-7.3-8.3c0-6.4,3.6-8.4,6.8-8.4c3.6,0,6.8,2.7,6.8,7.2v1.8c0,0.3-0.2,0.5-0.5,0.5h-9.3
		c-0.3,0-0.5,0.3-0.5,0.5C88,17.7,88.1,18.3,88.5,18.9z M88.4,13.8h6c0.3,0,0.5-0.2,0.5-0.5c-0.3-2.2-1.6-3.4-3.5-3.4
		c-1.8,0-3.2,1.2-3.5,3.4C87.9,13.6,88.1,13.8,88.4,13.8z"/>
	<path class="st0" d="M105.7,18.6l-3,4.6c-0.1,0.1-0.2,0.2-0.4,0.2h-2.7c-0.4,0-0.6-0.4-0.4-0.8l4.9-7.3c0.1-0.2,0.1-0.4,0-0.5
		l-4.7-7c-0.2-0.3,0-0.8,0.4-0.8h2.7c0.2,0,0.3,0.1,0.4,0.2l2.7,4.4c0.2,0.3,0.6,0.3,0.8,0l2.7-4.4c0.1-0.1,0.2-0.2,0.4-0.2h2.7
		c0.4,0,0.6,0.4,0.4,0.8l-4.7,7c-0.1,0.2-0.1,0.4,0,0.5l4.9,7.3c0.2,0.3,0,0.8-0.4,0.8h-2.7c-0.2,0-0.3-0.1-0.4-0.2l-3-4.6
		C106.3,18.3,105.9,18.3,105.7,18.6z"/>
	<path class="st0" d="M6.4,10h1.5c0.2,0,0.4-0.2,0.4-0.4v-2c0-0.2-0.2-0.4-0.4-0.4H6.4c-0.2,0-0.4-0.2-0.4-0.4V2.6
		c0-0.2-0.2-0.4-0.4-0.4H3.1c-0.2,0-0.4,0.2-0.4,0.4v4.1c0,0.2-0.2,0.4-0.4,0.4H0.4C0.2,7.1,0,7.3,0,7.6v2C0,9.8,0.2,10,0.4,10h1.8
		c0.2,0,0.4,0.2,0.4,0.4v9c0,2.6,1.7,4,4,4h1.3c0.2,0,0.4-0.2,0.4-0.4v-2.2c0,0.2-0.2,0.4-0.4,0.4S7.5,21,7.5,20.8
		c0-0.2,0.2-0.4,0.4-0.4H7.1c-0.8,0-1.2-0.7-1.2-1.6v-8.4C5.9,10.2,6.1,10,6.4,10z"/>
	<path class="st0" d="M7.5,20.8c0,0.2,0.2,0.4,0.4,0.4s0.4-0.2,0.4-0.4c0-0.2-0.2-0.4-0.4-0.4h0C7.7,20.4,7.5,20.6,7.5,20.8z"/>
</g>
</svg>
